<svg xmlns="http://www.w3.org/2000/svg" xmlns:xlink="http://www.w3.org/1999/xlink" width="291.52" height="287.19" viewBox="0 0 291.52 287.19">
  <defs>
    <filter id="Rectangle_132" x="8.637" y="6.27" width="273.209" height="271.134" filterUnits="userSpaceOnUse">
      <feOffset dy="3" input="SourceAlpha"/>
      <feGaussianBlur stdDeviation="3" result="blur"/>
      <feFlood flood-opacity="0.161"/>
      <feComposite operator="in" in2="blur"/>
      <feComposite in="SourceGraphic"/>
    </filter>
    <filter id="Rectangle_88" x="8.637" y="6.27" width="273.209" height="271.134" filterUnits="userSpaceOnUse">
      <feOffset dy="3" input="SourceAlpha"/>
      <feGaussianBlur stdDeviation="3" result="blur-2"/>
      <feFlood flood-opacity="0.161"/>
      <feComposite operator="in" in2="blur-2"/>
      <feComposite in="SourceGraphic"/>
    </filter>
    <clipPath id="clip-path">
      <rect id="Rectangle_131" data-name="Rectangle 131" width="244" height="244" transform="translate(68 393)" fill="#fff" stroke="#707070" stroke-width="1"/>
    </clipPath>
  </defs>
  <g id="Group_1802" data-name="Group 1802" transform="translate(-49.24 -371.404)">
    <g transform="matrix(1, 0, 0, 1, 49.24, 371.4)" filter="url(#Rectangle_132)">
      <rect id="Rectangle_132-2" data-name="Rectangle 132" width="255.209" height="253.134" rx="10" transform="translate(17.64 12.27)" fill="#53d1ff"/>
    </g>
    <g transform="matrix(1, 0, 0, 1, 49.24, 371.4)" filter="url(#Rectangle_88)">
      <rect id="Rectangle_88-2" data-name="Rectangle 88" width="255.209" height="253.134" rx="10" transform="translate(17.64 12.27)" fill="#fff" opacity="0.5"/>
    </g>
    <g id="Mask_Group_4" data-name="Mask Group 4" clip-path="url(#clip-path)">
      <g id="avatar" transform="translate(-32.681 288.483)">
        <g id="Group_1771" data-name="Group 1771" transform="translate(100.067 718.24)">
          <path id="Path_330" data-name="Path 330" d="M389.572,1817.946H170.152a6.739,6.739,0,0,1-6.719-6.719h0a6.739,6.739,0,0,1,6.719-6.719H389.572a6.739,6.739,0,0,1,6.719,6.719h0A6.739,6.739,0,0,1,389.572,1817.946Z" transform="translate(-141.063 -1804.508)" fill="#c8cbcc"/>
          <path id="Path_331" data-name="Path 331" d="M607.615,1862.963H522.2a3.152,3.152,0,0,1-3.143-3.143h0a3.152,3.152,0,0,1,3.143-3.143h85.41a3.152,3.152,0,0,1,3.143,3.143h0A3.152,3.152,0,0,1,607.615,1862.963Z" transform="translate(-371.147 -1838.26)" fill="#c8cbcc"/>
          <path id="Path_332" data-name="Path 332" d="M188.619,1810.794H103.21a3.152,3.152,0,0,1-3.143-3.143h0a3.152,3.152,0,0,1,3.143-3.143h85.409a3.152,3.152,0,0,1,3.143,3.143h0A3.153,3.153,0,0,1,188.619,1810.794Z" transform="translate(-100.067 -1804.508)" fill="#c8cbcc"/>
          <rect id="Rectangle_130" data-name="Rectangle 130" width="48.376" height="16.877" transform="translate(162.303 5.102)" fill="#c8cbcc"/>
        </g>
        <g id="Group_1797" data-name="Group 1797" transform="translate(136.422 125.517)">
          <g id="Group_1781" data-name="Group 1781" transform="translate(32.559 225.076)">
            <path id="Path_333" data-name="Path 333" d="M424.84,814.587c-3.486-16.862-21.225-51.5-21.225-51.5H341.7s-17.739,34.642-21.225,51.5,2.3,31.723,10.613,36.893,41.572,5.815,41.572,5.815,33.26-.646,41.572-5.815S428.326,831.449,424.84,814.587Z" transform="translate(-310.909 -763.083)" fill="#1e2d46"/>
            <g id="Group_1775" data-name="Group 1775" transform="translate(0 53.969)">
              <g id="Group_1773" data-name="Group 1773" transform="translate(0 193.996)">
                <g id="Group_1772" data-name="Group 1772">
                  <path id="Path_334" data-name="Path 334" d="M358.856,1465.486c1.52,32.8,2.314,80.526,2.911,86.339.765,7.435,18.527-2.354,18.527-2.354s5.263-41.3,8.21-83.462C378.619,1465.946,368.74,1465.538,358.856,1465.486Z" transform="translate(-336.412 -1465.486)" fill="#fe8572"/>
                  <path id="Path_335" data-name="Path 335" d="M370.449,1686.567H345.3l-1.093,10.152s-9.292,12.539-6.742,18.552,28.971,5.554,31.157,1.447S370.449,1686.567,370.449,1686.567Z" transform="translate(-322.289 -1608.52)" fill="#e6e6e6"/>
                  <path id="Path_336" data-name="Path 336" d="M342.51,1721.138s-9.96-22.073-30.091-5.692l-4.875,11.883s-12.265,5.882-12.265,22.508h51.38v-30.474c0-4.919-2.468-11.638-3.2-9.479C342.418,1712.979,342.51,1721.138,342.51,1721.138Z" transform="translate(-295.279 -1623.29)" fill="#7c91a8"/>
                </g>
              </g>
              <path id="Path_337" data-name="Path 337" d="M345.577,1064.238c10.31,0,22.154-7.967,22.154-17.065l3.841-96.051c0-9.1-16.278-35.16-16.278-35.16-10.41,0-35.712-.408-35.712,8.689L326.65,1047.7C326.65,1056.794,338.136,1064.238,345.577,1064.238Z" transform="translate(-311.002 -915.958)" fill="#1e2d46"/>
              <path id="Path_338" data-name="Path 338" d="M360.569,1219.129c-13.917,0-21.251,10.532-21.251,20.646l4.925,117.712c0,10.113,31.62,9.946,31.62-.168,0,0,2.569-47.91,3.042-66.406s2.2-54.54,2.2-54.54C381.1,1226.26,374.485,1219.129,360.569,1219.129Z" transform="translate(-323.771 -1112.103)" fill="#1e2d46"/>
              <g id="Group_1774" data-name="Group 1774" transform="translate(12.953 281.795)">
                <path id="Path_339" data-name="Path 339" d="M355.75,1750.79a.53.53,0,0,0,.365-.914,30.19,30.19,0,0,0-20.26-8.205h-.006a.53.53,0,0,0-.005,1.059,29.121,29.121,0,0,1,19.542,7.914A.528.528,0,0,0,355.75,1750.79Z" transform="translate(-334.137 -1731.97)" fill="#1a1a1a"/>
                <path id="Path_340" data-name="Path 340" d="M332.5,1748.114a.528.528,0,0,0,.336-.121,37.4,37.4,0,0,1,19.973-8.253.53.53,0,1,0-.1-1.054,38.466,38.466,0,0,0-20.545,8.49.53.53,0,0,0,.336.939Z" transform="translate(-331.969 -1730.037)" fill="#1a1a1a"/>
                <path id="Path_341" data-name="Path 341" d="M362.283,1725.405a.53.53,0,0,0,.25-1,27.13,27.13,0,0,0-17.932-2.616.529.529,0,1,0,.211,1.037,26.054,26.054,0,0,1,17.221,2.513A.53.53,0,0,0,362.283,1725.405Z" transform="translate(-339.868 -1718.771)" fill="#1a1a1a"/>
                <path id="Path_342" data-name="Path 342" d="M347.208,1721.692a.526.526,0,0,0,.33-.116,32.448,32.448,0,0,1,17.733-6.326.529.529,0,0,0,.506-.552.523.523,0,0,0-.552-.506c-6.53.289-13.732,2.863-18.348,6.557a.529.529,0,0,0,.331.943Z" transform="translate(-341.485 -1714.191)" fill="#1a1a1a"/>
              </g>
            </g>
            <g id="Group_1779" data-name="Group 1779" transform="translate(62.717 53.177)">
              <g id="Group_1778" data-name="Group 1778" transform="translate(8.478 193.996)">
                <g id="Group_1777" data-name="Group 1777">
                  <path id="Path_343" data-name="Path 343" d="M526.6,1463.245c-1.52,32.8-2.314,80.526-2.911,86.339-.765,7.435-18.527-2.354-18.527-2.354s-5.263-41.3-8.21-83.462C506.836,1463.7,516.715,1463.3,526.6,1463.245Z" transform="translate(-496.952 -1463.245)" fill="#fe8572"/>
                  <path id="Path_344" data-name="Path 344" d="M508.047,1684.326h25.144l1.093,10.152s9.293,12.539,6.742,18.552-28.971,5.554-31.157,1.447S508.047,1684.326,508.047,1684.326Z" transform="translate(-504.116 -1606.279)" fill="#e6e6e6"/>
                  <path id="Path_345" data-name="Path 345" d="M503.118,1718.9s9.96-22.073,30.091-5.693l4.874,11.883s12.266,5.882,12.266,22.508h-51.38v-30.474c0-4.919,2.468-11.639,3.2-9.479C503.21,1710.738,503.118,1718.9,503.118,1718.9Z" transform="translate(-498.257 -1621.049)" fill="#7c91a8"/>
                  <g id="Group_1776" data-name="Group 1776" transform="translate(13.875 87.691)">
                    <path id="Path_346" data-name="Path 346" d="M542.872,1748.243a.53.53,0,0,1-.365-.914,30.191,30.191,0,0,1,20.26-8.206h.006a.53.53,0,0,1,.006,1.059,29.118,29.118,0,0,0-19.542,7.914A.529.529,0,0,1,542.872,1748.243Z" transform="translate(-540.193 -1729.423)" fill="#1a1a1a"/>
                    <path id="Path_347" data-name="Path 347" d="M563.13,1743.064a.526.526,0,0,1-.336-.12,37.393,37.393,0,0,0-19.973-8.253.53.53,0,0,1,.1-1.054,38.468,38.468,0,0,1,20.545,8.49.529.529,0,0,1-.337.938Z" transform="translate(-540.193 -1725.871)" fill="#1a1a1a"/>
                    <path id="Path_348" data-name="Path 348" d="M540.6,1722.859a.53.53,0,0,1-.25-1,27.134,27.134,0,0,1,17.932-2.617.53.53,0,1,1-.212,1.038,26.056,26.056,0,0,0-17.221,2.513A.53.53,0,0,1,540.6,1722.859Z" transform="translate(-538.722 -1716.225)" fill="#1a1a1a"/>
                    <path id="Path_349" data-name="Path 349" d="M554.824,1719.146a.526.526,0,0,1-.33-.116,32.448,32.448,0,0,0-17.733-6.326.529.529,0,0,1-.506-.552.523.523,0,0,1,.552-.506c6.53.289,13.732,2.863,18.348,6.557a.529.529,0,0,1-.331.943Z" transform="translate(-536.254 -1711.645)" fill="#1a1a1a"/>
                  </g>
                </g>
              </g>
              <path id="Path_350" data-name="Path 350" d="M498.932,1062c-10.311,0-22.154-7.967-22.154-17.065l-3.841-96.051c0-9.1,16.278-35.16,16.278-35.16,10.41,0,35.713-.408,35.713,8.689l-7.068,123.047C517.86,1054.553,506.373,1062,498.932,1062Z" transform="translate(-472.937 -913.717)" fill="#1e2d46"/>
              <path id="Path_351" data-name="Path 351" d="M502.646,1216.888c13.916,0,21.251,10.532,21.251,20.646l-4.926,117.711c0,10.114-31.62,9.947-31.62-.167,0,0-2.569-47.91-3.042-66.406s-2.2-54.54-2.2-54.54C482.113,1224.018,488.729,1216.888,502.646,1216.888Z" transform="translate(-478.874 -1109.862)" fill="#1e2d46"/>
            </g>
            <g id="Group_1780" data-name="Group 1780" transform="translate(27.417 57.334)">
              <path id="Path_352" data-name="Path 352" d="M503.44,1313.386a21.088,21.088,0,0,0,20.089,3.657,19.287,19.287,0,0,0,5.3-2.747c.542-.4.015-1.321-.534-.915a20.066,20.066,0,0,1-19.24,2.2,18.074,18.074,0,0,1-4.863-2.945c-.516-.438-1.269.307-.749.749Z" transform="translate(-457.258 -1175.879)" fill="#4b576b"/>
              <path id="Path_353" data-name="Path 353" d="M373.2,1321.686a23.426,23.426,0,0,0,16.821,2.172,22.62,22.62,0,0,0,4.6-1.693c.611-.3.075-1.216-.535-.915a22.305,22.305,0,0,1-16.015,1.332,21.306,21.306,0,0,1-4.338-1.81c-.6-.33-1.132.584-.534.915Z" transform="translate(-372.944 -1181.183)" fill="#4b576b"/>
              <path id="Path_354" data-name="Path 354" d="M421.192,1338.176l-7.1.646c-.673.061-.68,1.121,0,1.059l7.1-.646c.673-.061.68-1.121,0-1.059Z" transform="translate(-399.24 -1192.487)" fill="#4b576b"/>
              <path id="Path_355" data-name="Path 355" d="M488.382,1011.93l12.515-5.594c.621-.278.083-1.19-.534-.914l-12.515,5.594c-.621.278-.083,1.191.534.915Z" transform="translate(-447.106 -977.171)" fill="#4b576b"/>
              <path id="Path_356" data-name="Path 356" d="M491.421,1031.547l9.293.534c.681.039.678-1.02,0-1.059l-9.293-.534c-.681-.039-.679,1.02,0,1.059Z" transform="translate(-449.266 -993.421)" fill="#4b576b"/>
              <path id="Path_357" data-name="Path 357" d="M453.008,1005.074l-7.653-9.839c-.418-.538-1.162.217-.749.749l7.652,9.839c.418.537,1.163-.217.749-.749Z" transform="translate(-419.23 -970.495)" fill="#4b576b"/>
              <path id="Path_358" data-name="Path 358" d="M470.618,926q.029,5.515.057,11.029.014,2.714.028,5.427a16.56,16.56,0,0,0,.335,5.014,3.261,3.261,0,0,0,3.5,2.441c.671-.112.386-1.132-.282-1.021-1.38.23-2.182-1.312-2.374-2.43a13.811,13.811,0,0,1-.109-2.254q-.006-1.225-.013-2.451-.026-5.033-.052-10.067-.015-2.845-.029-5.69a.53.53,0,0,0-1.059,0Z" transform="translate(-436.137 -925.492)" fill="#4b576b"/>
              <path id="Path_359" data-name="Path 359" d="M481.55,933.762v12.572a.53.53,0,0,0,1.059,0V933.762a.53.53,0,0,0-1.059,0Z" transform="translate(-443.209 -930.511)" fill="#4b576b"/>
            </g>
          </g>
          <path id="Path_360" data-name="Path 360" d="M418.366,595.8c-4.083-20.9,4.641-143.929,3.058-145.742-3.355-3.84-31.582-13.355-37.6-13.355H345.692c-6.016,0-34.243,9.515-37.6,13.355-1.584,1.813,7.146,124.756,3.081,145.615C308.663,608.564,420.875,608.651,418.366,595.8Z" transform="translate(-270.884 -326.849)" fill="#f5b02f"/>
          <path id="Path_361" data-name="Path 361" d="M234.726,474.31c6.509-4.032,30.654-4.557,17.712,36.9-10.738,34.4-11.093,56.251-15.863,66.869-4.9,10.909-30.269,17.717-33.252,2.286S222.4,481.947,234.726,474.31Z" transform="translate(-203.049 -350.035)" fill="#f5b02f"/>
          <g id="Group_1793" data-name="Group 1793" transform="translate(50.478)">
            <g id="Group_1783" data-name="Group 1783" transform="translate(19.779 77.868)">
              <path id="Path_362" data-name="Path 362" d="M415.695,452.28c-9.235-11.714-13.633-15.979-13.633-15.979a102.126,102.126,0,0,1,45.746,0s-4.4,4.265-13.633,15.979C430.471,456.977,419.4,456.977,415.695,452.28Z" transform="translate(-402.062 -402.775)" fill="#c0765b"/>
              <g id="Group_1782" data-name="Group 1782" transform="translate(7.091 0)">
                <path id="Path_363" data-name="Path 363" d="M453.67,379.875l-4.091-33.785h-23.3l-4.091,33.785A5.649,5.649,0,0,0,427.8,386.2h20.266A5.649,5.649,0,0,0,453.67,379.875Z" transform="translate(-422.148 -346.09)" fill="#c0765b"/>
                <path id="Path_364" data-name="Path 364" d="M428.138,346.09l-3.12,25.763c9.755,4.793,20.546,1.776,28.84-5.765l-2.422-20Z" transform="translate(-424.005 -346.09)" fill="#97533a"/>
              </g>
            </g>
            <g id="Group_1792" data-name="Group 1792">
              <g id="Group_1785" data-name="Group 1785" transform="translate(0 7.015)">
                <path id="Path_365" data-name="Path 365" d="M434.542,172.287c-.233-15.213-21.4-26.886-33.4-26.9h0l-4.359.067h0c-11.994.379-32.8,12.695-32.564,27.908,0,0,3.989,31.072,6.1,43.258s23.144,25.837,30.127,25.837,27.581-14.5,29.321-26.748S434.542,172.287,434.542,172.287Z" transform="translate(-357.796 -145.389)" fill="#c0765b"/>
                <g id="Group_1784" data-name="Group 1784" transform="translate(0 49.186)">
                  <path id="Path_366" data-name="Path 366" d="M358.665,308.065a51.768,51.768,0,0,1-7.711-5.417,13.992,13.992,0,0,1-4.643-7.293c-.53-2.714-.633-6.068,2.87-7.287,2.939-1.023,9.106,5.395,9.106,5.395Z" transform="translate(-346.035 -286.813)" fill="#c0765b"/>
                  <path id="Path_367" data-name="Path 367" d="M545.086,305.084a51.747,51.747,0,0,0,7.542-5.651A13.989,13.989,0,0,0,557.045,292c.447-2.73.447-6.085-3.092-7.2-2.969-.932-8.936,5.671-8.936,5.671Z" transform="translate(-474.772 -284.716)" fill="#c0765b"/>
                </g>
              </g>
              <g id="Group_1791" data-name="Group 1791" transform="translate(24.132 55.564)">
                <path id="Path_368" data-name="Path 368" d="M460.782,326.039c.2-.088.7-.324.74-.6s-1.075-.34-1.626-.485a1.437,1.437,0,0,1-1.189-1.062c-.094-.725.6-1.412.7-2.158a1.3,1.3,0,0,0,.013-.152c-.312-.617-.979-.432-1.356-.031a2.542,2.542,0,0,0-.508.949,4.48,4.48,0,0,0-.241,2.255,2.046,2.046,0,0,0,1.285,1.6A3.173,3.173,0,0,0,460.782,326.039Z" transform="translate(-442.126 -307.67)" fill="#b04f2e"/>
                <g id="Group_1790" data-name="Group 1790">
                  <path id="Path_369" data-name="Path 369" d="M497.472,284.659a4.262,4.262,0,0,1,5.575,1.864.525.525,0,0,0,.764.238.741.741,0,0,0,.2-.906A6.089,6.089,0,0,0,501,283.215a5.006,5.006,0,0,0-4.09.3.739.739,0,0,0-.2.906.525.525,0,0,0,.763.238Z" transform="translate(-467.604 -282.91)" fill="#1a1a1a"/>
                  <path id="Path_370" data-name="Path 370" d="M421.033,284.769a4.262,4.262,0,0,0-5.6,1.785.525.525,0,0,1-.766.227.741.741,0,0,1-.187-.909,6.09,6.09,0,0,1,3.048-2.6,5.006,5.006,0,0,1,4.086.358.739.739,0,0,1,.187.909.525.525,0,0,1-.766.227Z" transform="translate(-414.394 -282.964)" fill="#1a1a1a"/>
                  <g id="Group_1787" data-name="Group 1787" transform="translate(29.034 3.874)">
                    <g id="Group_1786" data-name="Group 1786">
                      <path id="Path_371" data-name="Path 371" d="M503.187,298.057a3.715,3.715,0,0,1-3.514,3.852c-1.808-.064-3.105-1.845-3.032-4.084s1.6-4,3.4-3.938S503.259,295.817,503.187,298.057Z" transform="translate(-496.638 -293.884)" fill="#1a1a1a"/>
                    </g>
                  </g>
                  <g id="Group_1789" data-name="Group 1789" transform="translate(1.057 3.712)">
                    <g id="Group_1788" data-name="Group 1788">
                      <path id="Path_372" data-name="Path 372" d="M417.391,297.366c-.073,2.239,1.159,4.182,2.967,4.246s3.506-1.775,3.579-4.014-1.334-4.106-3.141-4.17S417.464,295.127,417.391,297.366Z" transform="translate(-417.388 -293.426)" fill="#1a1a1a"/>
                    </g>
                  </g>
                </g>
                <path id="Path_373" data-name="Path 373" d="M452.985,339.622a79.569,79.569,0,0,1-26.4.651c1,4.725,7.37,8.746,12.853,8.662C446.624,348.824,451.419,345.686,452.985,339.622Z" transform="translate(-422.283 -319.601)" fill="#fff"/>
              </g>
              <path id="Path_374" data-name="Path 374" d="M431.082,164.393a3.033,3.033,0,0,0,2.689-3.284,10.966,10.966,0,0,0-2.39-5.393,3.155,3.155,0,0,0,1.936-1.674,3.061,3.061,0,0,0-1.542-3.954,43.18,43.18,0,0,0-4.915-2.184c-.04-.055-.078-.112-.119-.166a2.991,2.991,0,0,0,.847-1.078,3.081,3.081,0,0,0-1.542-3.954,37.279,37.279,0,0,0-5.616-2.746c1.46-1.353,1.692-4.016-.7-4.894a13.057,13.057,0,0,0-8-.426,18.462,18.462,0,0,0-5.811-7.614,3.034,3.034,0,0,0-4.764,1.712,13.342,13.342,0,0,0-4.379-2.711,3.07,3.07,0,0,0-3.954,1.542,2.752,2.752,0,0,0-.19.644,12.281,12.281,0,0,0-5.639-2.635,2.694,2.694,0,0,0-3.242,2.088,16.171,16.171,0,0,0-9.25-.029,2.841,2.841,0,0,0-1.9,2.452,24.141,24.141,0,0,0-4.9.928,2.572,2.572,0,0,0-1.77,3.458c-2.941.579-5.617,1.89-6.874,4.649a2.705,2.705,0,0,0,.856,3.435,9.4,9.4,0,0,0-5.649,7.992,4.059,4.059,0,0,0,.211,1.468,7.824,7.824,0,0,0-3.06,4.053,3.077,3.077,0,0,0,1.542,3.954c.023.009.049.016.073.024a8.072,8.072,0,0,0-2.1,4.708,3.077,3.077,0,0,0,2.494,3.433,2.861,2.861,0,0,0,1.048-.039c.015.1.033.2.048.3a12.871,12.871,0,0,0-2.243,6.694,3.1,3.1,0,0,0,2.494,3.434,2.957,2.957,0,0,0,1.319-.117,14.256,14.256,0,0,0-.475,7.022,3.612,3.612,0,0,0,.7,1.573c-.19.208-.382.414-.581.615a3.024,3.024,0,0,0,.474,4.218,3.072,3.072,0,0,0,4.218-.474,23.566,23.566,0,0,0,6.071-11.239,3.314,3.314,0,0,0,.078-.515c6.721-.731,12.358-2.294,17.986-5.825a2.807,2.807,0,0,0,3.58,1.383,30.707,30.707,0,0,0,4.033-1.833c0,.007,0,.016.007.023a3.056,3.056,0,0,0,3.865,1.755,14.468,14.468,0,0,0,6.208-3.922,3.141,3.141,0,0,0,4.655,1.734,36.357,36.357,0,0,0,5.2-3.886c-.079.831-.15,1.662-.2,2.5a3.087,3.087,0,0,0,2.494,3.433,3.139,3.139,0,0,0,1.921-.36,3.2,3.2,0,0,0-.028.882c.491,4.677,1.767,10.122,5.533,13.271,2.24,1.872,4.929-.352,4.824-2.621a2.836,2.836,0,0,0,2.885-.293,3.021,3.021,0,0,0,.664-4.191c-1.3-1.46-1.023-3.755-1.109-5.777a3.411,3.411,0,0,0,1.879-2.323,12.864,12.864,0,0,0-1.157-9.38A2.869,2.869,0,0,0,431.082,164.393Z" transform="translate(-349.193 -125.517)" fill="#1e2d46"/>
            </g>
          </g>
          <g id="Group_1794" data-name="Group 1794" transform="translate(0.274 198.315)">
            <path id="Path_375" data-name="Path 375" d="M206.227,703.613c-4.325,16.262-2.118,19.476,1.211,27.612S242.6,791.531,242.6,791.531l24.3-20.364s-25.39-43.1-26.853-50.407c-.382-1.908-1-6.958-1.907-13.2C234.737,684.107,212.854,678.691,206.227,703.613Z" transform="translate(-203.826 -687.278)" fill="#f5b02f"/>
            <path id="Path_376" data-name="Path 376" d="M341.3,932.116l6.507,8.085s-9.183,8.37-21.6,11.435l-2.682-4.625S325.209,937.458,341.3,932.116Z" transform="translate(-281.274 -845.682)" fill="#fe8572"/>
          </g>
          <path id="Path_377" data-name="Path 377" d="M600.872,474.31c-6.509-4.032-30.654-4.557-17.712,36.9,10.738,34.4,11.093,56.251,15.863,66.869,4.9,10.909,30.269,17.717,33.252,2.286S613.2,481.947,600.872,474.31Z" transform="translate(-446.542 -350.035)" fill="#f5b02f"/>
          <g id="Group_1795" data-name="Group 1795" transform="translate(119.196 198.315)">
            <path id="Path_378" data-name="Path 378" d="M611.19,703.613c4.325,16.262,2.117,19.476-1.211,27.612s-35.159,60.306-35.159,60.306l-24.3-20.364s25.39-43.1,26.853-50.407c.382-1.908,1-6.958,1.907-13.2C582.68,684.107,604.562,678.691,611.19,703.613Z" transform="translate(-547.053 -687.278)" fill="#f5b02f"/>
            <path id="Path_379" data-name="Path 379" d="M547.2,932.116l-6.507,8.085s9.183,8.37,21.6,11.435l2.683-4.625S563.293,937.458,547.2,932.116Z" transform="translate(-540.691 -845.682)" fill="#fe8572"/>
          </g>
          <g id="Group_1796" data-name="Group 1796" transform="translate(26.713 149.037)">
            <path id="Path_380" data-name="Path 380" d="M619.042,604.509q.386-11,.773-22l.77-21.908.436-12.406c.024-.682-1.035-.681-1.059,0q-.387,11-.773,22-.385,10.954-.77,21.908-.218,6.2-.436,12.406c-.024.682,1.035.681,1.059,0Z" transform="translate(-498.215 -547.69)" fill="#b88423"/>
            <path id="Path_381" data-name="Path 381" d="M314.611,617.433q-.411-12.936-.823-25.873-.41-12.893-.82-25.785-.231-7.26-.462-14.52c-.022-.68-1.081-.683-1.059,0q.411,12.937.823,25.873.41,12.892.82,25.785.231,7.26.462,14.52c.022.68,1.081.683,1.059,0Z" transform="translate(-299.893 -549.666)" fill="#b88423"/>
            <path id="Path_382" data-name="Path 382" d="M630.1,749.231l7.13-2.948a.548.548,0,0,0,.37-.651.532.532,0,0,0-.651-.37l-7.13,2.948a.548.548,0,0,0-.37.651.533.533,0,0,0,.652.37Z" transform="translate(-505.622 -675.497)" fill="#b88423"/>
            <path id="Path_383" data-name="Path 383" d="M286.629,757.817l-7.38-.81a.533.533,0,0,0-.53.53.541.541,0,0,0,.53.53l7.38.81a.534.534,0,0,0,.53-.529.541.541,0,0,0-.53-.53Z" transform="translate(-278.719 -683.112)" fill="#b88423"/>
          </g>
        </g>
      </g>
    </g>
    <line id="Line_1" data-name="Line 1" y2="287.19" transform="translate(196.443 371.404)" fill="none" stroke="#707070" stroke-width="1" stroke-dasharray="2"/>
    <line id="Line_2" data-name="Line 2" x1="291.52" transform="translate(49.24 507.062)" fill="none" stroke="#707070" stroke-width="1" stroke-dasharray="2"/>
  </g>
</svg>
