<svg xmlns="http://www.w3.org/2000/svg" width="12.446" height="18.577" viewBox="0 0 12.446 18.577">
  <path id="Path_322" data-name="Path 322" d="M187.129,27.441h-.185a4.633,4.633,0,0,0-4.4,4.69v1.481h-.1a1.2,1.2,0,0,0-1.214,1.214v5.616a1.2,1.2,0,0,0,1.214,1.214h9.319a1.2,1.2,0,0,0,1.214-1.214V34.826a1.2,1.2,0,0,0-1.214-1.214h-.041v-1.6a4.587,4.587,0,0,0-4.588-4.567Zm.864,11.6a.228.228,0,0,1-.226.267h-1.358a.228.228,0,0,1-.226-.267l.267-1.275A1.005,1.005,0,0,1,186.965,36h.123a1.009,1.009,0,0,1,.638,1.79Zm1.707-5.431h-5.164V32.09a2.636,2.636,0,0,1,2.325-2.654c.082,0,.165-.021.247-.021a2.594,2.594,0,0,1,2.592,2.592Zm-8.27,11.15a1.1,1.1,0,0,1,.288-.123.38.38,0,0,1-.144-.041.517.517,0,0,1-.144-.082l-.555-.329.267-.453.555.329a1.281,1.281,0,0,1,.247.185,1.216,1.216,0,0,1-.041-.288v-.679h.555V44.1a.38.38,0,0,1-.041.144l.1-.1c.041-.021.082-.062.123-.082l.555-.329.267.453-.555.329c-.041.021-.1.062-.144.082a.383.383,0,0,1-.144.041.967.967,0,0,1,.309.123l.555.329-.267.473-.555-.329a1.281,1.281,0,0,1-.247-.185,1.216,1.216,0,0,1,.041.288v.679H181.9v-.823a.38.38,0,0,1,.041-.144l-.1.1c-.041.021-.082.062-.123.082l-.555.329-.267-.453Zm4.629-.165a.383.383,0,0,1-.144.041.967.967,0,0,1,.309.123l.555.329-.288.473-.555-.329a1.281,1.281,0,0,1-.247-.185,1.216,1.216,0,0,1,.041.288v.679h-.555v-.823a.38.38,0,0,1,.041-.144l-.1.1c-.041.021-.082.062-.123.082l-.576.309-.267-.453.555-.329a1.1,1.1,0,0,1,.288-.123.38.38,0,0,1-.144-.041.517.517,0,0,1-.144-.082l-.555-.329.267-.453.555.329a1.281,1.281,0,0,1,.247.185,1.216,1.216,0,0,1-.041-.288v-.679h.555V44.1a.38.38,0,0,1-.041.144l.1-.1c.041-.021.082-.062.123-.082l.555-.329.267.453-.555.329c-.02.041-.082.062-.123.082Zm3.271,0a.383.383,0,0,1-.144.041.967.967,0,0,1,.309.123l.555.329-.288.473-.555-.329a1.281,1.281,0,0,1-.247-.185,1.216,1.216,0,0,1,.041.288v.679h-.555v-.823a.38.38,0,0,1,.041-.144l-.1.1c-.041.021-.082.062-.123.082l-.555.329-.267-.453.555-.329a1.1,1.1,0,0,1,.288-.123.38.38,0,0,1-.144-.041.517.517,0,0,1-.144-.082l-.555-.329.267-.453.555.329a1.28,1.28,0,0,1,.247.185,1.217,1.217,0,0,1-.041-.288V43.3h.555v.823a.38.38,0,0,1-.041.144l.1-.1c.041-.021.082-.062.123-.082l.555-.329.267.453-.555.329c-.041.021-.1.041-.144.062Zm3.271,0a.383.383,0,0,1-.144.041.967.967,0,0,1,.309.123l.555.329-.288.473-.555-.329a1.281,1.281,0,0,1-.247-.185,1.216,1.216,0,0,1,.041.288v.679h-.555v-.823a.38.38,0,0,1,.041-.144l-.1.1c-.041.021-.082.062-.123.082l-.555.329-.267-.453.555-.329a1.1,1.1,0,0,1,.288-.123.38.38,0,0,1-.144-.041.517.517,0,0,1-.144-.082l-.555-.329.267-.453.555.329a1.281,1.281,0,0,1,.247.185,1.216,1.216,0,0,1-.041-.288V43.3h.555v.823a.38.38,0,0,1-.041.144l.1-.1c.041-.021.082-.062.123-.082l.555-.329.267.453-.555.329c-.041.021-.1.041-.144.062Z" transform="translate(-180.875 -27.441)" fill="#3f465e"/>
</svg>
