<svg xmlns="http://www.w3.org/2000/svg" width="44" height="44" viewBox="0 0 44 44">
  <g id="Group_233" data-name="Group 233" transform="translate(-321.5 -530.5)">
    <g id="Group_173" data-name="Group 173" transform="translate(321.5 530.968)">
      <rect id="Rectangle_39" data-name="Rectangle 39" width="43" height="43" rx="4.5" transform="translate(0.5 0.032)" fill="#fff" stroke="#00afef" stroke-width="1"/>
    </g>
    <g id="fingerprint-svgrepo-com" transform="translate(328.883 538.809)">
      <path id="Path_156" data-name="Path 156" d="M28.7,26.017a.465.465,0,0,0-.317.575c.013.043,1.252,4.451.911,14.242a.463.463,0,0,0,.447.48h.017a.464.464,0,0,0,.463-.448c.347-9.939-.893-14.35-.946-14.533A.465.465,0,0,0,28.7,26.017Z" transform="translate(-14.272 -13.933)" fill="#00afef"/>
      <path id="Path_157" data-name="Path 157" d="M32.327,7.648A12.53,12.53,0,0,0,15.962.967a14.99,14.99,0,0,0-2.391,1.255A.464.464,0,1,0,14.077,3a14.047,14.047,0,0,1,2.242-1.177A11.6,11.6,0,0,1,31.472,8.01,28.768,28.768,0,0,1,32.814,14.9a.464.464,0,0,0,.461.419l.046,0a.464.464,0,0,0,.416-.507A28.608,28.608,0,0,0,32.327,7.648Z" transform="translate(-6.233)" fill="#00afef"/>
      <path id="Path_158" data-name="Path 158" d="M5.962,8.794a.464.464,0,1,0-.652-.661c-2.5,2.459-4.982,7.032-2.653,14.85a.463.463,0,0,0,.445.332.465.465,0,0,0,.445-.6C1.807,16.879,2.642,12.064,5.962,8.794Z" transform="translate(0 -4.287)" fill="#00afef"/>
      <path id="Path_159" data-name="Path 159" d="M18.461,6.005a9.632,9.632,0,0,0-4.109.745A9.746,9.746,0,0,0,8.724,18.393a11.823,11.823,0,0,1,.345,1.48,59.8,59.8,0,0,1,.175,6.546.464.464,0,0,0,.928,0,58.564,58.564,0,0,0-.185-6.681,12.465,12.465,0,0,0-.371-1.6A8.821,8.821,0,0,1,18.428,6.932c3.3.119,7.041,3.028,8.169,6.353.977,2.877.985,7.779.864,12.193a.464.464,0,0,0,.452.477.475.475,0,0,0,.477-.452c.123-4.5.11-9.5-.913-12.517C26.216,9.271,22.171,6.138,18.461,6.005Z" transform="translate(-3.551 -3.214)" fill="#00afef"/>
      <path id="Path_160" data-name="Path 160" d="M27.217,12a6.925,6.925,0,0,0-1.494.162.464.464,0,1,0,.2.906,6.033,6.033,0,0,1,6.849,3.543c1.128,2.664,1.2,6.94.941,14.4a.463.463,0,0,0,.447.48h.017a.464.464,0,0,0,.463-.448c.271-7.761.188-11.955-1.014-14.8A6.947,6.947,0,0,0,27.217,12Z" transform="translate(-12.664 -6.431)" fill="#00afef"/>
      <path id="Path_161" data-name="Path 161" d="M18,15.362a.464.464,0,0,0-.533-.76,7.38,7.38,0,0,0-2.583,8.027,36.29,36.29,0,0,1,.952,8.82.464.464,0,0,0,.928,0,36.584,36.584,0,0,0-.985-9.067A6.452,6.452,0,0,1,18,15.362Z" transform="translate(-6.895 -7.78)" fill="#00afef"/>
      <path id="Path_162" data-name="Path 162" d="M38.2,47.466A.464.464,0,0,0,37.739,47h0a.464.464,0,0,0-.464.461c0,.349.009.859.022,1.409.018.8.039,1.708.019,2.291a.463.463,0,0,0,.448.479h.016a.464.464,0,0,0,.463-.448c.021-.609,0-1.531-.018-2.344C38.209,48.308,38.2,47.808,38.2,47.466Z" transform="translate(-19.047 -25.186)" fill="#00afef"/>
      <path id="Path_163" data-name="Path 163" d="M25.111,19a3.7,3.7,0,0,0-1.43.287,3.773,3.773,0,0,0-2.042,4.741c.35,1.062.646,6.624.646,12.145a.464.464,0,0,0,.928,0c0-4.969-.265-11.137-.692-12.435a2.852,2.852,0,0,1,1.518-3.594,2.783,2.783,0,0,1,3.638,1.488c.867,2.051,1.124,5.764,1.187,8.518a.465.465,0,0,0,.464.453h.011a.465.465,0,0,0,.453-.475c-.065-2.834-.337-6.672-1.262-8.861A3.705,3.705,0,0,0,25.111,19Z" transform="translate(-10.558 -10.182)" fill="#00afef"/>
    </g>
  </g>
</svg>
