<svg xmlns="http://www.w3.org/2000/svg" width="3948.537" height="844" viewBox="0 0 3948.537 844">
  <g id="Group_235" data-name="Group 235" transform="translate(1746.269)">
    <rect id="Rectangle_9" data-name="Rectangle 9" width="390" height="844" fill="#fff"/>
    <g id="Group_3" data-name="Group 3" transform="translate(-383.641 244.699) rotate(-90)">
      <path id="Path_6" data-name="Path 6" d="M244.7,428.3,0,213.527,244.209,0" transform="translate(0 638.648)" fill="#00afef" opacity="0.1"/>
      <path id="Path_8" data-name="Path 8" d="M244.7,428.3,0,213.527,244.209,0" transform="translate(0 517.095)" fill="#00afef" opacity="0.1"/>
      <path id="Path_9" data-name="Path 9" d="M244.7,428.3,0,213.527,244.209,0" transform="translate(0 353.389)" fill="#00afef" opacity="0.1"/>
      <path id="Path_10" data-name="Path 10" d="M244.7,428.3,0,213.527,244.209,0" transform="translate(0 139.239)" fill="#00afef" opacity="0.1"/>
      <path id="Path_11" data-name="Path 11" d="M244.7,428.3,0,213.527,244.209,0" transform="translate(0)" fill="#00afef" opacity="0.1"/>
    </g>
    <g id="Group_4" data-name="Group 4" transform="translate(-1746.269 657.854) rotate(-90)">
      <path id="Path_6-2" data-name="Path 6" d="M657.853,1151.451,0,574.051,656.538,0" transform="translate(0 1716.958)" fill="#53e88b" opacity="0.1"/>
      <path id="Path_8-2" data-name="Path 8" d="M657.853,1151.451,0,574.051,656.538,0" transform="translate(0 1390.17)" fill="#53e88b" opacity="0.1"/>
      <path id="Path_9-2" data-name="Path 9" d="M657.853,1151.451,0,574.051,656.538,0" transform="translate(0 950.058)" fill="#53e88b" opacity="0.1"/>
      <path id="Path_10-2" data-name="Path 10" d="M657.853,1151.451,0,574.051,656.538,0" transform="translate(0 374.333)" fill="#53e88b" opacity="0.1"/>
      <path id="Path_11-2" data-name="Path 11" d="M657.853,1151.451,0,574.051,656.538,0" transform="translate(0)" fill="#53e88b" opacity="0.1"/>
    </g>
    <g id="Group_7" data-name="Group 7" transform="translate(-666.14 657.854) rotate(-90)">
      <path id="Path_6-3" data-name="Path 6" d="M657.853,1151.451,0,574.051,656.538,0" transform="translate(0 1716.958)" fill="#3e4095" opacity="0.1"/>
      <path id="Path_8-3" data-name="Path 8" d="M657.853,1151.451,0,574.051,656.538,0" transform="translate(0 1390.17)" fill="#3e4095" opacity="0.1"/>
      <path id="Path_9-3" data-name="Path 9" d="M657.853,1151.451,0,574.051,656.538,0" transform="translate(0 950.058)" fill="#3e4095" opacity="0.1"/>
      <path id="Path_11-3" data-name="Path 11" d="M657.853,1151.451,0,574.051,656.538,0" transform="translate(0)" fill="#3e4095" opacity="0.1"/>
    </g>
  </g>
</svg>
