<svg id="Group_185" data-name="Group 185" xmlns="http://www.w3.org/2000/svg" width="28.616" height="28.806" viewBox="0 0 28.616 28.806">
  <path id="Subtraction_1" data-name="Subtraction 1" d="M13.191,26.563a13.282,13.282,0,1,1,13.2-13.277A13.249,13.249,0,0,1,13.191,26.563Zm0-22.914a9.632,9.632,0,1,0,9.563,9.637A9.618,9.618,0,0,0,13.191,3.648Z" transform="translate(0 2.244)" fill="#00afef"/>
  <path id="Subtraction_2" data-name="Subtraction 2" d="M5.938,11.957a5.979,5.979,0,1,1,5.945-5.982A5.968,5.968,0,0,1,5.938,11.957Zm.008-8.311A2.33,2.33,0,1,0,8.262,5.975,2.325,2.325,0,0,0,5.945,3.646Z" transform="translate(7.251 9.552)" fill="#00afef"/>
  <path id="Path_253" data-name="Path 253" d="M74.316,475.06l-2.894,2.914a.619.619,0,0,0-.178.475l.168,2.689,3.41-3.433-.157-2.512A.2.2,0,0,0,74.316,475.06Z" transform="translate(-48.892 -475)" fill="#00afef"/>
  <path id="Path_254" data-name="Path 254" d="M77.514,479.264l-2.894,2.914a.608.608,0,0,1-.472.179l-2.671-.169,3.41-3.433,2.495.158A.206.206,0,0,1,77.514,479.264Z" transform="translate(-48.959 -476.051)" fill="#00afef"/>
  <path id="Path_255" data-name="Path 255" d="M58.27,491.185a.428.428,0,0,1-.305-.127.437.437,0,0,1,0-.615l14.417-14.514a.429.429,0,0,1,.611,0,.436.436,0,0,1,0,.614L58.575,491.059A.427.427,0,0,1,58.27,491.185Z" transform="translate(-45.077 -475.224)" fill="#00afef"/>
</svg>
