<svg xmlns="http://www.w3.org/2000/svg" width="40.475" height="20.808" viewBox="0 0 40.475 20.808">
  <path id="Icon_awesome-money-bill" data-name="Icon awesome-money-bill" d="M38.451,4.5H2.024A1.9,1.9,0,0,0,0,6.234v17.34a1.9,1.9,0,0,0,2.024,1.734H38.451a1.9,1.9,0,0,0,2.024-1.734V6.234A1.9,1.9,0,0,0,38.451,4.5ZM3.036,22.707V19.239a3.791,3.791,0,0,1,4.048,3.468Zm0-12.138V7.1H7.083A3.791,3.791,0,0,1,3.036,10.569Zm17.2,9.537A5.2,5.2,0,1,1,25.3,14.9,5.132,5.132,0,0,1,20.238,20.106Zm17.2,2.6H33.392a3.791,3.791,0,0,1,4.048-3.468Zm0-12.138A3.791,3.791,0,0,1,33.392,7.1h4.048Z" transform="translate(0 -4.5)" fill="#fff"/>
</svg>
