<svg xmlns="http://www.w3.org/2000/svg" width="27.21" height="20.407" viewBox="0 0 27.21 20.407">
  <path id="Path_288" data-name="Path 288" d="M286.758,212.8H261.249a.85.85,0,0,0-.851.851v11.9a.851.851,0,0,0,.851.851H267.3l.757,6.058a.85.85,0,0,0,.843.744h11.054a.85.85,0,0,0,.851-.851V226.4h5.952a.85.85,0,0,0,.851-.851v-11.9a.85.85,0,0,0-.851-.85ZM272.3,214.5h3.4v5.151a2.962,2.962,0,0,0-.851,2.077V224.7H272.3Zm6.8,17.006h-9.453l-.638-5.1H275.7a.85.85,0,0,0,.851-.851v-3.826a1.275,1.275,0,0,1,2.55,0Z" transform="translate(-260.398 -212.8)" fill="rgba(53,49,48,0.6)"/>
</svg>
