<svg xmlns="http://www.w3.org/2000/svg" width="23.113" height="23.27" viewBox="0 0 23.113 23.27">
  <g id="Group_185" data-name="Group 185" transform="translate(0 -1.966)">
    <path id="Path_249" data-name="Path 249" d="M51.556,501.385A11.635,11.635,0,1,0,40,489.751,11.6,11.6,0,0,0,51.556,501.385Z" transform="translate(-40 -476.15)" fill="#00afef"/>
    <path id="Path_250" data-name="Path 250" d="M53.449,500.059a8.437,8.437,0,1,0-8.38-8.437A8.408,8.408,0,0,0,53.449,500.059Z" transform="translate(-41.893 -478.022)" fill="#f6fbfe"/>
    <path id="Path_251" data-name="Path 251" d="M55.342,498.731a5.238,5.238,0,1,0-5.2-5.238A5.221,5.221,0,0,0,55.342,498.731Z" transform="translate(-43.785 -479.892)" fill="#00afef"/>
    <path id="Path_252" data-name="Path 252" d="M57.235,497.4a2.04,2.04,0,1,0-2.026-2.04A2.033,2.033,0,0,0,57.235,497.4Z" transform="translate(-45.678 -481.764)" fill="#d3d3e4"/>
  </g>
</svg>
