<svg xmlns="http://www.w3.org/2000/svg" width="30.39" height="19.595" viewBox="0 0 30.39 19.595">
  <path id="Path_553" data-name="Path 553" d="M110.049,204.175a1.991,1.991,0,0,0-1.378-2.1,2.034,2.034,0,0,0-2.386.935c-.044.074-.085.148-.121.223a5.327,5.327,0,0,0-.412-.969,7.225,7.225,0,0,0-1.851-2.125,15.59,15.59,0,0,0-7.9-3.054,10.115,10.115,0,0,0-3.4-.007,12.2,12.2,0,0,0-5.076,1.654,1.69,1.69,0,0,1-.825.225c-.832.012-1.666-.064-2.5-.033a5.3,5.3,0,0,0-1.543.279.791.791,0,0,0-.342,1.348c.293.374.61.73.927,1.107-.516.739-.954,2.038-1.876,2.305-.194.056-.4.083-.595.129a1.443,1.443,0,0,0-1.1,1.514c.131,1.1.251,2.2.416,3.29a2.536,2.536,0,0,0,.374.985,1.282,1.282,0,0,0,1.152.508,2.329,2.329,0,0,1,1.64.745,8.272,8.272,0,0,1,2.192,2.281c.381.826-.039,2.785,1.287,2.9a6.1,6.1,0,0,0,2.531-.019c1.173-.415,1.264-1.719,1.627-2.78,3.219.3,5.091.514,8.15.547.11.413.216.8.316,1.19.41,1.586,4.3,1.747,4.736.192.319-1.13.6-2.274,1-3.378a31.774,31.774,0,0,0,1.254-3.062,10.355,10.355,0,0,0,.187-2.6,5.938,5.938,0,0,0,1.761,1.632.987.987,0,1,0,1.034-1.681,4.42,4.42,0,0,1-.389-.269,2.556,2.556,0,0,0,1.11-1.92Zm-23.624.441a1.358,1.358,0,1,1,1.376-1.343A1.385,1.385,0,0,1,86.426,204.616Zm12.5-2.632a.938.938,0,0,1-1.172.624,10.156,10.156,0,0,0-6.313-.005.939.939,0,0,1-.584-1.785,12.137,12.137,0,0,1,7.445-.005.94.94,0,0,1,.624,1.173Z" transform="translate(-79.666 -196.941)" fill="#3e4095"/>
</svg>
