<svg xmlns="http://www.w3.org/2000/svg" width="25.066" height="25.235" viewBox="0 0 25.066 25.235">
  <g id="Group_185" data-name="Group 185" transform="translate(0 0)">
    <path id="Path_249" data-name="Path 249" d="M51.556,501.385A11.635,11.635,0,1,0,40,489.751,11.6,11.6,0,0,0,51.556,501.385Z" transform="translate(-40 -476.15)" fill="#fff"/>
    <path id="Path_250" data-name="Path 250" d="M53.449,500.059a8.437,8.437,0,1,0-8.38-8.437A8.408,8.408,0,0,0,53.449,500.059Z" transform="translate(-41.893 -478.022)" fill="#3e4095"/>
    <path id="Path_251" data-name="Path 251" d="M55.342,498.731a5.238,5.238,0,1,0-5.2-5.238A5.221,5.221,0,0,0,55.342,498.731Z" transform="translate(-43.785 -479.892)" fill="#fff"/>
    <path id="Path_252" data-name="Path 252" d="M57.235,497.4a2.04,2.04,0,1,0-2.026-2.04A2.033,2.033,0,0,0,57.235,497.4Z" transform="translate(-45.678 -481.764)" fill="#d3d3e4"/>
    <path id="Path_253" data-name="Path 253" d="M73.934,475.053,71.4,477.606a.542.542,0,0,0-.156.416l.147,2.355,2.987-3.007-.137-2.2A.179.179,0,0,0,73.934,475.053Z" transform="translate(-51.664 -475)" fill="#fff"/>
    <path id="Path_254" data-name="Path 254" d="M76.765,479.2l-2.535,2.552a.533.533,0,0,1-.413.157l-2.339-.148,2.987-3.007,2.185.138A.18.18,0,0,1,76.765,479.2Z" transform="translate(-51.752 -476.386)" fill="#fff"/>
    <path id="Path_255" data-name="Path 255" d="M58.217,489.277a.375.375,0,0,1-.267-.111.383.383,0,0,1,0-.539l12.629-12.714a.376.376,0,0,1,.535,0,.382.382,0,0,1,0,.538L58.484,489.166A.375.375,0,0,1,58.217,489.277Z" transform="translate(-46.66 -475.296)" fill="#bfbfbf"/>
  </g>
</svg>
