<svg xmlns="http://www.w3.org/2000/svg" width="29.799" height="15.319" viewBox="0 0 29.799 15.319">
  <path id="Icon_awesome-money-bill" data-name="Icon awesome-money-bill" d="M28.309,4.5H1.49A1.4,1.4,0,0,0,0,5.777V18.543a1.4,1.4,0,0,0,1.49,1.277H28.309a1.4,1.4,0,0,0,1.49-1.277V5.777A1.4,1.4,0,0,0,28.309,4.5ZM2.235,17.9V15.351A2.791,2.791,0,0,1,5.215,17.9Zm0-8.936V6.415h2.98A2.791,2.791,0,0,1,2.235,8.968ZM14.9,15.99a3.831,3.831,0,1,1,3.725-3.83A3.778,3.778,0,0,1,14.9,15.99ZM27.564,17.9h-2.98a2.791,2.791,0,0,1,2.98-2.553Zm0-8.936a2.791,2.791,0,0,1-2.98-2.553h2.98Z" transform="translate(0 -4.5)" fill="#fff"/>
</svg>
