<svg xmlns="http://www.w3.org/2000/svg" width="25.042" height="25.042" viewBox="0 0 25.042 25.042">
  <g id="Group_201" data-name="Group 201" transform="translate(-244.575 -394.691)" opacity="1">
    <path id="Path_249" data-name="Path 249" d="M52.521,503.158A12.521,12.521,0,1,0,40,490.637,12.521,12.521,0,0,0,52.521,503.158Z" transform="translate(204.575 -83.425)" fill="#3E4095"/>
    <path id="Path_250" data-name="Path 250" d="M54.148,501.344a9.079,9.079,0,1,0-9.079-9.079A9.079,9.079,0,0,0,54.148,501.344Z" transform="translate(202.947 -85.053)" fill="#e2e2e2"/>
    <path id="Path_251" data-name="Path 251" d="M55.776,499.529a5.637,5.637,0,1,0-5.637-5.637A5.637,5.637,0,0,0,55.776,499.529Z" transform="translate(201.32 -86.681)" fill="#3E4095"/>
    <path id="Path_252" data-name="Path 252" d="M57.4,497.715a2.2,2.2,0,1,0-2.2-2.2A2.2,2.2,0,0,0,57.4,497.715Z" transform="translate(199.692 -88.308)" fill="#d3d3e4"/>
  </g>

</svg>