<svg xmlns="http://www.w3.org/2000/svg" width="19.48" height="19.479" viewBox="0 0 19.48 19.479">
  <path id="support-svgrepo-com" d="M11.74,2A9.751,9.751,0,0,0,2,11.74v4.035a1.884,1.884,0,0,0,1.948,1.809h.974A.974.974,0,0,0,5.9,16.61V11.6a.974.974,0,0,0-.974-.974H4.038a7.781,7.781,0,0,1,15.4,0h-.884a.974.974,0,0,0-.974.974v5.983a1.95,1.95,0,0,1-1.948,1.948H13.688v-.974h-3.9V21.48h5.844a3.9,3.9,0,0,0,3.9-3.9,1.884,1.884,0,0,0,1.948-1.809V11.74A9.751,9.751,0,0,0,11.74,2Z" transform="translate(-2 -2)" fill="#979797"/>
</svg>
