<svg xmlns="http://www.w3.org/2000/svg" width="25.635" height="25.809" viewBox="0 0 25.635 25.809">
  <g id="Group_185" data-name="Group 185" transform="translate(0 0)">
    <path id="Path_249" data-name="Path 249" d="M51.819,501.914A11.9,11.9,0,1,0,40,490.015,11.86,11.86,0,0,0,51.819,501.914Z" transform="translate(-40 -476.105)" fill="#fff"/>
    <path id="Path_250" data-name="Path 250" d="M53.64,500.442a8.628,8.628,0,1,0-8.57-8.629A8.6,8.6,0,0,0,53.64,500.442Z" transform="translate(-41.821 -477.904)" fill="#53e88b"/>
    <path id="Path_251" data-name="Path 251" d="M55.46,498.97a5.357,5.357,0,1,0-5.321-5.357A5.339,5.339,0,0,0,55.46,498.97Z" transform="translate(-43.641 -479.702)" fill="#fff"/>
    <path id="Path_252" data-name="Path 252" d="M57.281,497.5a2.087,2.087,0,1,0-2.073-2.087A2.08,2.08,0,0,0,57.281,497.5Z" transform="translate(-45.462 -481.501)" fill="#d3d3e4"/>
    <path id="Path_253" data-name="Path 253" d="M74,475.054,71.4,477.665a.554.554,0,0,0-.16.425l.15,2.409,3.055-3.075-.14-2.25A.183.183,0,0,0,74,475.054Z" transform="translate(-51.219 -475)" fill="#fff"/>
    <path id="Path_254" data-name="Path 254" d="M76.886,479.211l-2.593,2.611a.545.545,0,0,1-.423.161l-2.392-.151,3.055-3.075,2.235.141A.184.184,0,0,1,76.886,479.211Z" transform="translate(-51.304 -476.332)" fill="#fff"/>
    <path id="Path_255" data-name="Path 255" d="M58.225,489.583a.383.383,0,0,1-.273-.114.392.392,0,0,1,0-.551l12.916-13a.384.384,0,0,1,.547,0,.391.391,0,0,1,0,.55l-12.916,13A.383.383,0,0,1,58.225,489.583Z" transform="translate(-46.406 -475.284)" fill="#bfbfbf"/>
  </g>
</svg>
