<svg xmlns="http://www.w3.org/2000/svg" width="14.098" height="14.193" viewBox="0 0 14.098 14.193">
  <g id="Group_185" data-name="Group 185" transform="translate(0 0)">
    <path id="Path_249" data-name="Path 249" d="M46.5,491.2A6.544,6.544,0,1,0,40,484.66,6.522,6.522,0,0,0,46.5,491.2Z" transform="translate(-40 -477.01)" fill="#fff"/>
    <path id="Path_250" data-name="Path 250" d="M49.782,492.676a4.745,4.745,0,1,0-4.713-4.745A4.729,4.729,0,0,0,49.782,492.676Z" transform="translate(-43.283 -480.281)" fill="#00afef"/>
    <path id="Path_251" data-name="Path 251" d="M53.065,494.147a2.946,2.946,0,1,0-2.926-2.946A2.936,2.936,0,0,0,53.065,494.147Z" transform="translate(-46.565 -483.552)" fill="#fff"/>
    <path id="Path_252" data-name="Path 252" d="M56.348,495.619a1.148,1.148,0,1,0-1.14-1.148A1.144,1.144,0,0,0,56.348,495.619Z" transform="translate(-49.848 -486.822)" fill="#d3d3e4"/>
    <path id="Path_253" data-name="Path 253" d="M72.756,475.03l-1.426,1.436a.3.3,0,0,0-.088.234l.083,1.325,1.68-1.691-.077-1.238A.1.1,0,0,0,72.756,475.03Z" transform="translate(-60.231 -475)" fill="#fff"/>
    <path id="Path_254" data-name="Path 254" d="M74.452,479.006l-1.426,1.436a.3.3,0,0,1-.232.088l-1.316-.083,1.68-1.691,1.229.078A.1.1,0,0,1,74.452,479.006Z" transform="translate(-60.384 -477.423)" fill="#fff"/>
    <path id="Path_255" data-name="Path 255" d="M58.051,483.381a.211.211,0,0,1-.15-.062.215.215,0,0,1,0-.3l7.1-7.151a.211.211,0,0,1,.3,0,.215.215,0,0,1,0,.3l-7.1,7.151A.211.211,0,0,1,58.051,483.381Z" transform="translate(-51.551 -475.517)" fill="#bfbfbf"/>
  </g>
</svg>
