<svg width="40" height="40" viewBox="0 0 40 40" fill="none" xmlns="http://www.w3.org/2000/svg">
<g clip-path="url(#clip0_86:660)">
<path d="M35.8106 0H4.18972C2.43351 0 1.00488 1.42863 1.00488 3.18484V34.8058C1.00488 36.4853 2.31203 37.8655 3.96223 37.9826V38.8628C3.96223 39.4909 4.47158 40.0002 5.09968 40.0002H8.32251C8.9506 40.0002 9.45995 39.4909 9.45995 38.8628V37.9906H30.1994V38.8626C30.1994 39.4907 30.7088 40 31.3369 40H34.5597C35.1878 40 35.6971 39.4907 35.6971 38.8626V37.9906H35.8109C37.5671 37.9906 38.9957 36.562 38.9957 34.8058V3.18484C38.9955 1.42863 37.5666 0 35.8106 0ZM35.6969 31.6778C35.6969 33.3398 34.3447 34.692 32.6827 34.692H6.97646C5.31443 34.692 3.96223 33.3398 3.96223 31.6778V6.08532C3.96223 4.42329 5.31443 3.0711 6.97646 3.0711H32.6827C34.3447 3.0711 35.6969 4.42329 35.6969 6.08532V31.6778ZM16.0291 18.9384C16.0291 20.3809 14.8555 21.5545 13.413 21.5545C11.9705 21.5545 10.7969 20.3809 10.7969 18.9384C10.7969 17.4959 11.9705 16.3223 13.413 16.3223C14.8555 16.3223 16.0291 17.4959 16.0291 18.9384ZM32.6827 5.34598H6.97646C6.5688 5.34598 6.23712 5.67766 6.23712 6.08532V31.6778C6.23712 32.0854 6.5688 32.4171 6.97646 32.4171H32.6827C33.0903 32.4171 33.422 32.0854 33.422 31.6778V6.08532C33.422 5.67766 33.0903 5.34598 32.6827 5.34598ZM13.413 23.8294C10.7161 23.8294 8.52202 21.6353 8.52202 18.9384C8.52202 16.2415 10.7161 14.0474 13.413 14.0474C16.1099 14.0474 18.304 16.2415 18.304 18.9384C18.304 21.6353 16.1099 23.8294 13.413 23.8294ZM22.4295 23.8483H21.877C21.2489 23.8483 20.7395 23.339 20.7395 22.7109C20.7395 22.0828 21.2489 21.5734 21.877 21.5734H22.4295C23.0576 21.5734 23.567 22.0828 23.567 22.7109C23.567 23.339 23.0576 23.8483 22.4295 23.8483ZM22.4295 20.1327H21.877C21.2489 20.1327 20.7395 19.6234 20.7395 18.9953C20.7395 18.3672 21.2489 17.8579 21.877 17.8579H22.4295C23.0576 17.8579 23.567 18.3672 23.567 18.9953C23.567 19.6234 23.0576 20.1327 22.4295 20.1327ZM22.4295 16.4172H21.877C21.2489 16.4172 20.7395 15.9078 20.7395 15.2797C20.7395 14.6516 21.2489 14.1423 21.877 14.1423H22.4295C23.0576 14.1423 23.567 14.6516 23.567 15.2797C23.567 15.9078 23.0576 16.4172 22.4295 16.4172ZM26.2968 23.8483H25.7443C25.1162 23.8483 24.6068 23.339 24.6068 22.7109C24.6068 22.0828 25.1162 21.5734 25.7443 21.5734H26.2968C26.9249 21.5734 27.4343 22.0828 27.4343 22.7109C27.4343 23.339 26.9249 23.8483 26.2968 23.8483ZM26.2968 20.1327H25.7443C25.1162 20.1327 24.6068 19.6234 24.6068 18.9953C24.6068 18.3672 25.1162 17.8579 25.7443 17.8579H26.2968C26.9249 17.8579 27.4343 18.3672 27.4343 18.9953C27.4343 19.6234 26.9249 20.1327 26.2968 20.1327ZM26.2968 16.4172H25.7443C25.1162 16.4172 24.6068 15.9078 24.6068 15.2797C24.6068 14.6516 25.1162 14.1423 25.7443 14.1423H26.2968C26.9249 14.1423 27.4343 14.6516 27.4343 15.2797C27.4343 15.9078 26.9249 16.4172 26.2968 16.4172ZM30.1641 23.8483H29.6116C28.9835 23.8483 28.4741 23.339 28.4741 22.7109C28.4741 22.0828 28.9835 21.5734 29.6116 21.5734H30.1641C30.7922 21.5734 31.3016 22.0828 31.3016 22.7109C31.3016 23.339 30.7922 23.8483 30.1641 23.8483ZM30.1641 20.1327H29.6116C28.9835 20.1327 28.4741 19.6234 28.4741 18.9953C28.4741 18.3672 28.9835 17.8579 29.6116 17.8579H30.1641C30.7922 17.8579 31.3016 18.3672 31.3016 18.9953C31.3016 19.6234 30.7922 20.1327 30.1641 20.1327ZM30.1641 16.4172H29.6116C28.9835 16.4172 28.4741 15.9078 28.4741 15.2797C28.4741 14.6516 28.9835 14.1423 29.6116 14.1423H30.1641C30.7922 14.1423 31.3016 14.6516 31.3016 15.2797C31.3016 15.9078 30.7922 16.4172 30.1641 16.4172Z" fill="#00AFEF"/>
</g>
<defs>
<clipPath id="clip0_86:660">
<rect width="40" height="40" fill="white"/>
</clipPath>
</defs>
</svg>
