<svg width="26" height="30" viewBox="0 0 26 30" fill="none" xmlns="http://www.w3.org/2000/svg">
<path d="M24.7167 1.65247H1.28334C0.722158 1.65247 0.267212 2.10735 0.267212 2.66859V28.9839C0.267212 29.545 0.722158 30 1.28334 30H24.7167C25.2778 30 25.7328 29.545 25.7328 28.9839V2.66853C25.7327 2.10735 25.2778 1.65247 24.7167 1.65247Z" fill="#A0A0A0"/>
<path d="M4.79548 28.9839V2.66853C4.79548 2.10735 5.25042 1.6524 5.8116 1.6524H1.28334C0.722158 1.6524 0.267212 2.10729 0.267212 2.66853V28.9839C0.267212 29.5451 0.722158 30 1.28334 30H5.8116C5.25042 30 4.79548 29.5451 4.79548 28.9839Z" fill="#A0A0A0"/>
<path d="M7.83801 1.65247H18.1619V3.91724H7.83801V1.65247Z" fill="#A0A0A0"/>
<path d="M23.9209 3.73679V27.9157C23.9209 28.0662 23.7988 28.1882 23.6483 28.1882H2.35154C2.20104 28.1882 2.07898 28.0662 2.07898 27.9157V3.73679C2.07898 3.58629 2.20104 3.46423 2.35154 3.46423H23.6483C23.7989 3.46423 23.9209 3.58629 23.9209 3.73679Z" fill="white"/>
<path d="M7.83801 3.46423V5.39677C7.83801 6.34048 8.6058 7.10827 9.54952 7.10827H16.4505C17.3942 7.10827 18.162 6.34048 18.162 5.39677V3.46423H7.83801Z" fill="#A0A0A0"/>
<path d="M16.4505 1.02808H14.5284C14.2828 0.425172 13.6912 0 13 0C12.3088 0 11.7172 0.425172 11.4716 1.02808H9.54952C9.27141 1.02808 9.0459 1.25353 9.0459 1.53171V5.39679C9.0459 5.6749 9.27135 5.90041 9.54952 5.90041H16.4504C16.7286 5.90041 16.9541 5.6749 16.9541 5.39679V1.53171C16.9541 1.25353 16.7286 1.02808 16.4505 1.02808Z" fill="#A0A0A0"/>
<path d="M11.2657 3.91719H10.9438C10.6936 3.91719 10.4908 3.71445 10.4908 3.46424C10.4908 3.21403 10.6936 3.01129 10.9438 3.01129H11.2657C11.5159 3.01129 11.7187 3.21403 11.7187 3.46424C11.7187 3.71445 11.5159 3.91719 11.2657 3.91719Z" fill="#EFEDEF"/>
<path d="M15.1165 3.91719H14.7946C14.5445 3.91719 14.3417 3.71445 14.3417 3.46424C14.3417 3.21403 14.5445 3.01129 14.7946 3.01129H15.1165C15.3667 3.01129 15.5695 3.21403 15.5695 3.46424C15.5695 3.71445 15.3667 3.91719 15.1165 3.91719Z" fill="#EFEDEF"/>
<path d="M8.31221 11.3199H7.66116V8.2942C7.66116 8.04399 7.45836 7.84125 7.2082 7.84125C6.95805 7.84125 6.75525 8.04399 6.75525 8.2942V11.6116C6.75525 11.9502 7.03077 12.2258 7.36946 12.2258H8.31221C8.56236 12.2258 8.76516 12.023 8.76516 11.7728C8.76516 11.5226 8.56236 11.3199 8.31221 11.3199Z" fill="#A0A0A0"/>
<path d="M10.7658 7.84131C10.0211 7.84131 9.41528 8.44712 9.41528 9.19177V10.8753C9.41528 11.62 10.0211 12.2258 10.7658 12.2258C11.5104 12.2258 12.1162 11.62 12.1162 10.8753V9.19177C12.1162 8.44712 11.5103 7.84131 10.7658 7.84131ZM11.2102 10.8753C11.2102 11.1204 11.0108 11.3199 10.7657 11.3199C10.5206 11.3199 10.3211 11.1204 10.3211 10.8753V9.19177C10.3211 8.94664 10.5206 8.74721 10.7657 8.74721C11.0108 8.74721 11.2102 8.9467 11.2102 9.19177V10.8753Z" fill="#A0A0A0"/>
<path d="M14.6644 7.84131H14.0495C13.4744 7.84131 13.0065 8.30918 13.0065 8.88431V11.7729C13.0065 12.0231 13.2093 12.2258 13.4594 12.2258C13.7096 12.2258 13.9124 12.0231 13.9124 11.7729V10.5595H14.8015V11.7729C14.8015 12.0231 15.0043 12.2258 15.2545 12.2258C15.5046 12.2258 15.7074 12.0231 15.7074 11.7729V8.88431C15.7074 8.30918 15.2396 7.84131 14.6644 7.84131ZM13.9124 9.65354V8.88431C13.9124 8.80876 13.9739 8.74722 14.0495 8.74722H14.6645C14.7401 8.74722 14.8016 8.80876 14.8016 8.88431V9.65354H13.9124Z" fill="#A0A0A0"/>
<path d="M18.7417 7.84131C18.4915 7.84131 18.2887 8.04406 18.2887 8.29427V9.77893L17.4838 8.09859C17.3924 7.90793 17.1814 7.80574 16.9749 7.85261C16.7686 7.89941 16.6223 8.08283 16.6223 8.29427V11.7729C16.6223 12.0231 16.8251 12.2259 17.0753 12.2259C17.3254 12.2259 17.5282 12.0231 17.5282 11.7729V10.2882L18.3331 11.9686C18.4097 12.1283 18.5703 12.2259 18.7415 12.2259C18.7747 12.2259 18.8084 12.2222 18.842 12.2146C19.0483 12.1678 19.1946 11.9843 19.1946 11.7729V8.29427C19.1946 8.04406 18.9918 7.84131 18.7417 7.84131Z" fill="#A0A0A0"/>
<path d="M7.32066 15.1428H6.74251C6.49235 15.1428 6.28955 14.94 6.28955 14.6898C6.28955 14.4396 6.49235 14.2369 6.74251 14.2369H7.32066C7.57081 14.2369 7.77362 14.4396 7.77362 14.6898C7.77362 14.94 7.57081 15.1428 7.32066 15.1428Z" fill="#A0A0A0"/>
<path d="M20.9144 15.1428H9.42927C9.17912 15.1428 8.97632 14.94 8.97632 14.6898C8.97632 14.4396 9.17912 14.2369 9.42927 14.2369H20.9143C21.1645 14.2369 21.3673 14.4396 21.3673 14.6898C21.3673 14.94 21.1645 15.1428 20.9144 15.1428Z" fill="#A0A0A0"/>
<path d="M20.9143 17.4213H5.06611C4.81596 17.4213 4.61316 17.2186 4.61316 16.9684C4.61316 16.7182 4.81596 16.5154 5.06611 16.5154H20.9143C21.1644 16.5154 21.3672 16.7182 21.3672 16.9684C21.3672 17.2186 21.1644 17.4213 20.9143 17.4213Z" fill="#A0A0A0"/>
<path d="M20.9143 19.7H5.06611C4.81596 19.7 4.61316 19.4972 4.61316 19.247C4.61316 18.9968 4.81596 18.7941 5.06611 18.7941H20.9143C21.1644 18.7941 21.3672 18.9968 21.3672 19.247C21.3672 19.4972 21.1644 19.7 20.9143 19.7Z" fill="#A0A0A0"/>
<path d="M13.0302 26.5911C11.554 26.5911 10.3529 25.39 10.3529 23.9138C10.3529 22.4376 11.5539 21.2366 13.0302 21.2366C14.5064 21.2366 15.7074 22.4376 15.7074 23.9138C15.7074 25.39 14.5064 26.5911 13.0302 26.5911ZM13.0302 22.1425C12.0535 22.1425 11.2588 22.9371 11.2588 23.9138C11.2588 24.8905 12.0534 25.6851 13.0302 25.6851C14.0069 25.6851 14.8015 24.8905 14.8015 23.9138C14.8015 22.9371 14.0069 22.1425 13.0302 22.1425Z" fill="#A0A0A0"/>
<path d="M13.2548 25.1591C13.1282 25.1591 13.0029 25.1062 12.914 25.0047L12.2195 24.2123C12.0546 24.0242 12.0735 23.738 12.2616 23.5731C12.4497 23.4083 12.7359 23.4272 12.9007 23.6152L13.3292 24.1041L16.8179 21.6945C17.0238 21.5523 17.3059 21.6039 17.448 21.8097C17.5902 22.0156 17.5386 22.2977 17.3327 22.4399L13.512 25.0789C13.4338 25.1329 13.344 25.1591 13.2548 25.1591Z" fill="#A0A0A0"/>
</svg>
