<svg width="40" height="40" viewBox="0 0 40 40" fill="none" xmlns="http://www.w3.org/2000/svg">
<g clip-path="url(#clip0_576:14737)">
<path d="M8.28125 10.7422C8.60485 10.7422 8.86719 10.4799 8.86719 10.1562C8.86719 9.83265 8.60485 9.57031 8.28125 9.57031C7.95765 9.57031 7.69531 9.83265 7.69531 10.1562C7.69531 10.4799 7.95765 10.7422 8.28125 10.7422Z" fill="black"/>
<path d="M31.7188 10.7422C32.0424 10.7422 32.3047 10.4799 32.3047 10.1562C32.3047 9.83265 32.0424 9.57031 31.7188 9.57031C31.3951 9.57031 31.1328 9.83265 31.1328 10.1562C31.1328 10.4799 31.3951 10.7422 31.7188 10.7422Z" fill="black"/>
<path d="M38.2422 0.585938H1.75781C1.1106 0.585938 0.585938 1.1106 0.585938 1.75781V4.10156C0.585938 4.74877 1.1106 5.27344 1.75781 5.27344H38.2422C38.8894 5.27344 39.4141 4.74877 39.4141 4.10156V1.75781C39.4141 1.1106 38.8894 0.585938 38.2422 0.585938Z" fill="#00AFEF"/>
<path d="M13.8837 40V35.8953C13.8843 35.5608 14.0177 35.2403 14.2546 35.0041C14.4915 34.768 14.8125 34.6355 15.1469 34.6359H24.4172C24.7518 34.6355 25.0729 34.7679 25.3099 35.0041C25.5469 35.2402 25.6805 35.5608 25.6813 35.8953V40" fill="#00AFEF"/>
<path d="M25.6796 35.8977C25.6788 35.5631 25.5452 35.2425 25.3082 35.0064C25.0712 34.7703 24.7502 34.6379 24.4156 34.6383H15.1453H15.1351H22.0718C22.4064 34.6379 22.7275 34.7703 22.9645 35.0064C23.2015 35.2425 23.3351 35.5631 23.3359 35.8977V40H25.6796V35.8977Z" fill="#00AFEF"/>
<path d="M38.2422 -0.00546265H1.75781C1.29174 -0.00504891 0.844872 0.180282 0.515308 0.509846C0.185744 0.83941 0.000413737 1.28628 0 1.75235L0 4.0961C0.000413737 4.56217 0.185744 5.00904 0.515308 5.3386C0.844872 5.66817 1.29174 5.8535 1.75781 5.85391H4.6875V14.7992C4.68833 15.576 4.99726 16.3207 5.5465 16.8699C6.09574 17.4192 6.84044 17.7281 7.61719 17.7289H15.1172C15.1806 18.3287 15.4533 18.8869 15.8875 19.3055L17.1281 20.5008L15.7281 23.6516C15.3344 24.5352 15.1315 25.492 15.1328 26.4594V34.0445C14.6454 34.0478 14.1791 34.2437 13.8355 34.5893C13.4919 34.935 13.2988 35.4025 13.2984 35.8899V39.4055C13.2984 39.5609 13.3602 39.7099 13.4701 39.8198C13.5799 39.9297 13.729 39.9914 13.8844 39.9914C14.0398 39.9914 14.1888 39.9297 14.2987 39.8198C14.4086 39.7099 14.4703 39.5609 14.4703 39.4055V35.8899C14.4702 35.8014 14.4876 35.7138 14.5215 35.6322C14.5554 35.5505 14.6052 35.4764 14.668 35.4141C14.731 35.3511 14.8058 35.3013 14.8881 35.2674C14.9704 35.2335 15.0586 35.2161 15.1477 35.2164H23.4969H24.4172C24.5965 35.216 24.7686 35.2868 24.8958 35.4132C25.0229 35.5396 25.0947 35.7113 25.0953 35.8906V39.4063C25.0953 39.5617 25.157 39.7107 25.2669 39.8206C25.3768 39.9305 25.5259 39.9922 25.6812 39.9922C25.8367 39.9922 25.9857 39.9305 26.0956 39.8206C26.2055 39.7107 26.2672 39.5617 26.2672 39.4063V35.8906C26.2659 35.4009 26.0706 34.9317 25.724 34.5858C25.3773 34.2399 24.9077 34.0455 24.418 34.0453H24.093V32.5359C24.0942 31.6738 24.2824 30.8222 24.6445 30.0399L26.0445 27.025C26.6559 25.7145 26.8503 24.248 26.6016 22.8234L25.7344 17.7289H32.3828C33.1595 17.7279 33.9041 17.4189 34.4533 16.8697C35.0025 16.3205 35.3115 15.5759 35.3125 14.7992V5.85391H38.2422C38.7082 5.85329 39.1549 5.6679 39.4845 5.33838C39.814 5.00886 39.9994 4.56211 40 4.0961V1.75235C39.9994 1.28634 39.814 0.839593 39.4845 0.510074C39.1549 0.180554 38.7082 -0.00484254 38.2422 -0.00546265ZM7.61719 16.557C7.15111 16.5566 6.70425 16.3713 6.37468 16.0417C6.04512 15.7122 5.85979 15.2653 5.85938 14.7992V13.0805C6.735 13.2085 7.54593 13.6156 8.1716 14.2414C8.79727 14.8672 9.20425 15.6783 9.33203 16.5539L7.61719 16.557ZM10.5133 16.557C10.3787 15.3691 9.84514 14.262 8.99978 13.4166C8.15442 12.5713 7.04729 12.0377 5.85938 11.9031V8.16407C7.04724 8.02936 8.15429 7.49574 8.99963 6.65041C9.84496 5.80508 10.3786 4.69803 10.5133 3.51016H16.4602C16.0883 3.75406 15.7425 4.03548 15.4281 4.35001C14.6001 5.17807 14.0126 6.21548 13.7283 7.35145C13.444 8.48741 13.4735 9.67927 13.8138 10.7998C14.1541 11.9202 14.7923 12.9272 15.6603 13.7132C16.5283 14.4993 17.5935 15.0347 18.7422 15.2625L18.3852 16.557H10.5133ZM5.85938 6.9836V3.51016H9.33281C9.20487 4.38588 8.79773 5.19692 8.17193 5.82272C7.54613 6.44852 6.73509 6.85565 5.85938 6.9836ZM20 3.62813C21.259 3.62948 22.4764 4.07951 23.4335 4.89746C24.3906 5.7154 25.0249 6.8477 25.2225 8.09113C25.4201 9.33456 25.168 10.6077 24.5116 11.682C23.8551 12.7564 22.8372 13.5616 21.6406 13.9531C21.2906 13.7785 20.898 13.7078 20.5091 13.7494C20.1202 13.7909 19.7513 13.9429 19.4461 14.1875C18.0928 14.0516 16.8438 13.3999 15.9582 12.3677C15.0725 11.3355 14.6182 10.002 14.6894 8.64377C14.7607 7.28556 15.352 6.00689 16.3408 5.07302C17.3296 4.13914 18.6399 3.62174 20 3.62813ZM16.6977 18.4617C16.4915 18.265 16.3519 18.0088 16.2984 17.7289H18.0625L17.6164 19.3461L16.6977 18.4617ZM24.9789 26.5313L23.5789 29.5461C23.1454 30.4833 22.9202 31.5033 22.9187 32.5359V34.0461H16.3023V26.4594C16.3013 25.6559 16.4698 24.8612 16.7969 24.1273L18.6719 19.9086C18.6839 19.8821 18.6939 19.8547 18.7016 19.8266L19.8805 15.5492C19.9175 15.4138 19.9865 15.2892 20.0817 15.1861C20.177 15.0829 20.2956 15.0041 20.4276 14.9564C20.5597 14.9087 20.7013 14.8934 20.8404 14.9119C20.9796 14.9304 21.1123 14.982 21.2273 15.0625L21.2414 15.0719C21.3715 15.1665 21.4732 15.2949 21.5353 15.4433C21.5974 15.5917 21.6176 15.7542 21.5938 15.9133L20.9477 20.1969C20.9404 20.235 20.937 20.2737 20.9375 20.3125L21.0938 24.1711C21.1001 24.3265 21.1679 24.473 21.2822 24.5784C21.3966 24.6839 21.5481 24.7395 21.7035 24.7332C21.8589 24.7269 22.0054 24.6591 22.1109 24.5447C22.2163 24.4304 22.2719 24.2788 22.2656 24.1234L22.1094 20.3203L22.5 17.7305H24.5422L25.4414 23.0234C25.6499 24.2125 25.4885 25.4369 24.9789 26.5313ZM34.1406 14.7992C34.14 15.2652 33.9546 15.712 33.6251 16.0415C33.2956 16.371 32.8488 16.5564 32.3828 16.557H30.6641C30.7921 15.6808 31.1996 14.8694 31.826 14.2435C32.4525 13.6176 33.2643 13.2108 34.1406 13.0836V14.7992ZM34.1406 11.9031C32.9526 12.0375 31.8453 12.571 30.9997 13.4164C30.1542 14.2618 29.6205 15.369 29.4859 16.557H22.6797L22.75 16.0883C22.8149 15.6681 22.746 15.2382 22.5531 14.8594C23.3062 14.5339 23.9909 14.069 24.5711 13.4891C25.1714 12.8889 25.6476 12.1764 25.9725 11.3923C26.2973 10.6081 26.4646 9.76758 26.4646 8.91876C26.4646 8.06994 26.2973 7.22943 25.9725 6.44525C25.6476 5.66107 25.1714 4.94857 24.5711 4.34844C24.257 4.03393 23.9114 3.75251 23.5398 3.5086H29.4867C29.6208 4.69685 30.1542 5.80442 30.9996 6.65011C31.845 7.49581 32.9524 8.02957 34.1406 8.16407V11.9031ZM34.1406 6.98126C33.2648 6.85355 32.4536 6.44649 31.8278 5.82065C31.202 5.19481 30.7949 4.38363 30.6672 3.50782H34.1406V6.98126ZM38.8281 4.09063C38.8279 4.24597 38.7661 4.39488 38.6563 4.50472C38.5464 4.61456 38.3975 4.67636 38.2422 4.67657H35.3125V3.50469H36.3883C36.5437 3.50469 36.6927 3.44296 36.8026 3.33308C36.9125 3.22319 36.9742 3.07416 36.9742 2.91876C36.9742 2.76336 36.9125 2.61432 36.8026 2.50444C36.6927 2.39455 36.5437 2.33282 36.3883 2.33282H3.61094C3.45554 2.33282 3.3065 2.39455 3.19662 2.50444C3.08673 2.61432 3.025 2.76336 3.025 2.91876C3.025 3.07416 3.08673 3.22319 3.19662 3.33308C3.3065 3.44296 3.45554 3.50469 3.61094 3.50469H4.6875V4.67657H1.75781C1.60241 4.67657 1.45338 4.61484 1.34349 4.50495C1.23361 4.39507 1.17188 4.24603 1.17188 4.09063V1.74688C1.17188 1.59148 1.23361 1.44245 1.34349 1.33256C1.45338 1.22268 1.60241 1.16094 1.75781 1.16094H38.2422C38.3975 1.16115 38.5464 1.22295 38.6563 1.33279C38.7661 1.44263 38.8279 1.59154 38.8281 1.74688V4.09063ZM8.28125 9.55938C8.16536 9.55938 8.05208 9.59375 7.95572 9.65813C7.85936 9.72251 7.78426 9.81402 7.73991 9.92109C7.69557 10.0282 7.68396 10.146 7.70657 10.2596C7.72918 10.3733 7.78499 10.4777 7.86693 10.5596C7.94887 10.6416 8.05328 10.6974 8.16694 10.72C8.2806 10.7426 8.39841 10.731 8.50548 10.6867C8.61255 10.6423 8.70406 10.5672 8.76844 10.4708C8.83282 10.3745 8.86719 10.2612 8.86719 10.1453C8.86575 9.99087 8.80338 9.84323 8.69365 9.73453C8.58392 9.62582 8.43571 9.56484 8.28125 9.56485V9.55938ZM31.7188 10.7313C31.8346 10.7313 31.9479 10.6969 32.0443 10.6325C32.1406 10.5681 32.2157 10.4766 32.2601 10.3695C32.3044 10.2625 32.316 10.1447 32.2934 10.031C32.2708 9.91735 32.215 9.81294 32.1331 9.731C32.0511 9.64905 31.9467 9.59325 31.8331 9.57064C31.7194 9.54803 31.6016 9.55963 31.4945 9.60398C31.3875 9.64833 31.2959 9.72343 31.2316 9.81979C31.1672 9.91615 31.1328 10.0294 31.1328 10.1453C31.1321 10.2227 31.1467 10.2995 31.1758 10.3712C31.205 10.4429 31.248 10.5082 31.3025 10.5632C31.357 10.6182 31.4218 10.6618 31.4933 10.6916C31.5647 10.7214 31.6413 10.7367 31.7188 10.7367V10.7313ZM19.3547 8.87344H17.9102C17.789 8.86058 17.6669 8.88585 17.5608 8.94572C17.4547 9.0056 17.3699 9.09709 17.3183 9.20745C17.2667 9.3178 17.2508 9.44151 17.2729 9.56132C17.295 9.68113 17.3539 9.79106 17.4414 9.87579L20.6914 13.0328C20.8039 13.1353 20.9517 13.19 21.1038 13.1854C21.2558 13.1808 21.4001 13.1172 21.5062 13.0081C21.6122 12.899 21.6717 12.753 21.672 12.6009C21.6723 12.4488 21.6134 12.3025 21.5078 12.193L19.2969 10.0453H19.3531C19.892 10.0445 20.4149 9.86229 20.8376 9.52812C21.2604 9.19395 21.5583 8.72724 21.6836 8.20313H22.1633C22.3187 8.20313 22.4677 8.1414 22.5776 8.03151C22.6875 7.92163 22.7492 7.77259 22.7492 7.61719C22.7492 7.46179 22.6875 7.31276 22.5776 7.20287C22.4677 7.09299 22.3187 7.03126 22.1633 7.03126H21.6695C21.6124 6.8154 21.525 6.60867 21.4102 6.41719H22.1633C22.3187 6.41719 22.4677 6.35546 22.5776 6.24558C22.6875 6.13569 22.7492 5.98666 22.7492 5.83126C22.7492 5.67586 22.6875 5.52682 22.5776 5.41694C22.4677 5.30705 22.3187 5.24532 22.1633 5.24532H17.8766C17.7212 5.24532 17.5721 5.30705 17.4622 5.41694C17.3524 5.52682 17.2906 5.67586 17.2906 5.83126C17.2906 5.98666 17.3524 6.13569 17.4622 6.24558C17.5721 6.35546 17.7212 6.41719 17.8766 6.41719H19.3547C19.5693 6.41771 19.78 6.47474 19.9655 6.58253C20.1511 6.69033 20.305 6.84509 20.4117 7.03126H17.8766C17.7212 7.03126 17.5721 7.09299 17.4622 7.20287C17.3524 7.31276 17.2906 7.46179 17.2906 7.61719C17.2906 7.77259 17.3524 7.92163 17.4622 8.03151C17.5721 8.1414 17.7212 8.20313 17.8766 8.20313H20.4437C20.3418 8.4045 20.1861 8.57371 19.9938 8.69202C19.8016 8.81033 19.5804 8.87313 19.3547 8.87344Z" fill="#00AFEF"/>
<circle cx="20" cy="9" r="5" fill="#91D8F7"/>
<path d="M22.71 12V9.7H23.37V8.98H22.71V8.31H23.37V7.59H22.71V5.33H21.29V7.59H19.87L18.2 5.33H16.74V7.59H16.08V8.31H16.74V8.98H16.08V9.7H16.74V12H18.16V9.7H19.65L21.34 12H22.71ZM18.16 8.31H18.64L19.13 8.98H18.16V8.31ZM20.4 8.31H21.29V8.98H20.89L20.4 8.31Z" fill="#00AFEF"/>
</g>
<defs>
<clipPath id="clip0_576:14737">
<rect width="40" height="40" fill="white"/>
</clipPath>
</defs>
</svg>
