<svg id="Group_1851" data-name="Group 1851" xmlns="http://www.w3.org/2000/svg" width="25.043" height="25.042" viewBox="0 0 25.043 25.042">
  <path id="Path_550" data-name="Path 550" d="M12.521,0A12.521,12.521,0,1,0,25.042,12.521,12.521,12.521,0,0,0,12.521,0Zm0,21.6A9.079,9.079,0,1,1,21.6,12.522,9.079,9.079,0,0,1,12.521,21.6Z" fill="#858585"/>
  <path id="Path_551" data-name="Path 551" d="M12.522,6.884a5.637,5.637,0,1,0,5.637,5.637A5.637,5.637,0,0,0,12.522,6.884Zm-.005,7.832h0a2.2,2.2,0,1,1,2.2-2.2A2.2,2.2,0,0,1,12.517,14.716Z" fill="#858585"/>
</svg>
